<svg xmlns="http://www.w3.org/2000/svg" xmlns:xlink="http://www.w3.org/1999/xlink" width="500" zoomAndPan="magnify" viewBox="0 0 375 374.999991" height="500" preserveAspectRatio="xMidYMid meet" version="1.0"><defs><clipPath id="c978319f8a"><path d="M 75 0 L 300 0 C 341.421875 0 375 33.578125 375 75 L 375 300 C 375 341.421875 341.421875 375 300 375 L 75 375 C 33.578125 375 0 341.421875 0 300 L 0 75 C 0 33.578125 33.578125 0 75 0 Z M 75 0 " clip-rule="nonzero"/></clipPath><clipPath id="28eff27b5c"><path d="M 0 0 L 375 0 L 375 375 L 0 375 Z M 0 0 " clip-rule="nonzero"/></clipPath><clipPath id="ecb79b3ff6"><path d="M 75 0 L 300 0 C 341.421875 0 375 33.578125 375 75 L 375 300 C 375 341.421875 341.421875 375 300 375 L 75 375 C 33.578125 375 0 341.421875 0 300 L 0 75 C 0 33.578125 33.578125 0 75 0 Z M 75 0 " clip-rule="nonzero"/></clipPath><clipPath id="1f4bc697fc"><rect x="0" width="375" y="0" height="375"/></clipPath><clipPath id="14749f4d02"><path d="M 47.710938 47.710938 L 327.289062 47.710938 L 327.289062 327.289062 L 47.710938 327.289062 Z M 47.710938 47.710938 " clip-rule="nonzero"/></clipPath><clipPath id="98030e8295"><path d="M 106.210938 47.710938 L 268.789062 47.710938 C 301.097656 47.710938 327.289062 73.902344 327.289062 106.210938 L 327.289062 268.789062 C 327.289062 301.097656 301.097656 327.289062 268.789062 327.289062 L 106.210938 327.289062 C 73.902344 327.289062 47.710938 301.097656 47.710938 268.789062 L 47.710938 106.210938 C 47.710938 73.902344 73.902344 47.710938 106.210938 47.710938 Z M 106.210938 47.710938 " clip-rule="nonzero"/></clipPath><clipPath id="40ac21447f"><path d="M 0.710938 0.710938 L 280.289062 0.710938 L 280.289062 280.289062 L 0.710938 280.289062 Z M 0.710938 0.710938 " clip-rule="nonzero"/></clipPath><clipPath id="521a6bb6e3"><path d="M 59.210938 0.710938 L 221.789062 0.710938 C 254.097656 0.710938 280.289062 26.902344 280.289062 59.210938 L 280.289062 221.789062 C 280.289062 254.097656 254.097656 280.289062 221.789062 280.289062 L 59.210938 280.289062 C 26.902344 280.289062 0.710938 254.097656 0.710938 221.789062 L 0.710938 59.210938 C 0.710938 26.902344 26.902344 0.710938 59.210938 0.710938 Z M 59.210938 0.710938 " clip-rule="nonzero"/></clipPath><clipPath id="f1e1dc6fac"><rect x="0" width="281" y="0" height="281"/></clipPath><clipPath id="7970c764be"><path d="M 47.710938 47.710938 L 327.460938 47.710938 L 327.460938 327.460938 L 47.710938 327.460938 Z M 47.710938 47.710938 " clip-rule="nonzero"/></clipPath><clipPath id="c1a98a8df9"><path d="M 106.210938 47.710938 L 268.785156 47.710938 C 301.09375 47.710938 327.285156 73.902344 327.285156 106.210938 L 327.285156 268.785156 C 327.285156 301.09375 301.09375 327.285156 268.785156 327.285156 L 106.210938 327.285156 C 73.902344 327.285156 47.710938 301.09375 47.710938 268.785156 L 47.710938 106.210938 C 47.710938 73.902344 73.902344 47.710938 106.210938 47.710938 Z M 106.210938 47.710938 " clip-rule="nonzero"/></clipPath><clipPath id="67285f5a58"><path d="M 175.152344 27.472656 L 199.847656 27.472656 L 199.847656 347.53125 L 175.152344 347.53125 Z M 175.152344 27.472656 " clip-rule="nonzero"/></clipPath><clipPath id="3ff795ff2c"><path d="M 182.652344 27.472656 L 192.347656 27.472656 C 196.488281 27.472656 199.847656 30.828125 199.847656 34.972656 L 199.847656 340.027344 C 199.847656 344.171875 196.488281 347.527344 192.347656 347.527344 L 182.652344 347.527344 C 178.511719 347.527344 175.152344 344.171875 175.152344 340.027344 L 175.152344 34.972656 C 175.152344 30.828125 178.511719 27.472656 182.652344 27.472656 Z M 182.652344 27.472656 " clip-rule="nonzero"/></clipPath><clipPath id="4caa9a88be"><path d="M 0.152344 0.472656 L 24.847656 0.472656 L 24.847656 320.53125 L 0.152344 320.53125 Z M 0.152344 0.472656 " clip-rule="nonzero"/></clipPath><clipPath id="3d8710cb4a"><path d="M 7.652344 0.472656 L 17.347656 0.472656 C 21.488281 0.472656 24.847656 3.828125 24.847656 7.972656 L 24.847656 313.027344 C 24.847656 317.171875 21.488281 320.527344 17.347656 320.527344 L 7.652344 320.527344 C 3.511719 320.527344 0.152344 317.171875 0.152344 313.027344 L 0.152344 7.972656 C 0.152344 3.828125 3.511719 0.472656 7.652344 0.472656 Z M 7.652344 0.472656 " clip-rule="nonzero"/></clipPath><clipPath id="b4f90347b4"><rect x="0" width="25" y="0" height="321"/></clipPath><clipPath id="5ba7ab8e85"><path d="M 241.4375 27.472656 L 266.132812 27.472656 L 266.132812 347.53125 L 241.4375 347.53125 Z M 241.4375 27.472656 " clip-rule="nonzero"/></clipPath><clipPath id="4d67297028"><path d="M 248.9375 27.472656 L 258.632812 27.472656 C 262.773438 27.472656 266.132812 30.828125 266.132812 34.972656 L 266.132812 340.027344 C 266.132812 344.171875 262.773438 347.527344 258.632812 347.527344 L 248.9375 347.527344 C 244.796875 347.527344 241.4375 344.171875 241.4375 340.027344 L 241.4375 34.972656 C 241.4375 30.828125 244.796875 27.472656 248.9375 27.472656 Z M 248.9375 27.472656 " clip-rule="nonzero"/></clipPath><clipPath id="ec6a7da33e"><path d="M 0.4375 0.472656 L 25.132812 0.472656 L 25.132812 320.53125 L 0.4375 320.53125 Z M 0.4375 0.472656 " clip-rule="nonzero"/></clipPath><clipPath id="e49a6fd84c"><path d="M 7.9375 0.472656 L 17.632812 0.472656 C 21.773438 0.472656 25.132812 3.828125 25.132812 7.972656 L 25.132812 313.027344 C 25.132812 317.171875 21.773438 320.527344 17.632812 320.527344 L 7.9375 320.527344 C 3.796875 320.527344 0.4375 317.171875 0.4375 313.027344 L 0.4375 7.972656 C 0.4375 3.828125 3.796875 0.472656 7.9375 0.472656 Z M 7.9375 0.472656 " clip-rule="nonzero"/></clipPath><clipPath id="5929b39a62"><rect x="0" width="26" y="0" height="321"/></clipPath></defs><rect x="-37.5" width="450" fill="#ffffff" y="-37.499999" height="449.999989" fill-opacity="1"/><rect x="-37.5" width="450" fill="#000000" y="-37.499999" height="449.999989" fill-opacity="1"/><g clip-path="url(#c978319f8a)"><g transform="matrix(1, 0, 0, 1, 0, 0)"><g clip-path="url(#1f4bc697fc)"><g clip-path="url(#28eff27b5c)"><g clip-path="url(#ecb79b3ff6)"><rect x="-82.5" width="540" fill="#ffffff" height="539.999987" y="-82.499998" fill-opacity="1"/></g></g></g></g></g><g clip-path="url(#14749f4d02)"><g clip-path="url(#98030e8295)"><g transform="matrix(1, 0, 0, 1, 47, 47)"><g clip-path="url(#f1e1dc6fac)"><g clip-path="url(#40ac21447f)"><g clip-path="url(#521a6bb6e3)"><path fill="#ffffff" d="M 0.710938 0.710938 L 280.289062 0.710938 L 280.289062 280.289062 L 0.710938 280.289062 Z M 0.710938 0.710938 " fill-opacity="1" fill-rule="nonzero"/></g></g></g></g></g></g><g clip-path="url(#7970c764be)"><g clip-path="url(#c1a98a8df9)"><path stroke-linecap="butt" transform="matrix(0.75, 0, 0, 0.75, 47.712217, 47.712213)" fill="none" stroke-linejoin="miter" d="M 77.998304 -0.00170049 L 294.763957 -0.00170049 C 337.842087 -0.00170049 372.763967 34.920179 372.763967 77.99831 L 372.763967 294.763963 C 372.763967 337.842093 337.842087 372.763973 294.763957 372.763973 L 77.998304 372.763973 C 34.920173 372.763973 -0.00170649 337.842093 -0.00170649 294.763963 L -0.00170649 77.99831 C -0.00170649 34.920179 34.920173 -0.00170049 77.998304 -0.00170049 Z M 77.998304 -0.00170049 " stroke="#000000" stroke-width="74" stroke-opacity="1" stroke-miterlimit="4"/></g></g><g clip-path="url(#67285f5a58)"><g clip-path="url(#3ff795ff2c)"><g transform="matrix(1, 0, 0, 1, 175, 27)"><g clip-path="url(#b4f90347b4)"><g clip-path="url(#4caa9a88be)"><g clip-path="url(#3d8710cb4a)"><path fill="#000000" d="M 0.152344 0.472656 L 24.847656 0.472656 L 24.847656 320.53125 L 0.152344 320.53125 Z M 0.152344 0.472656 " fill-opacity="1" fill-rule="nonzero"/></g></g></g></g></g></g><g clip-path="url(#5ba7ab8e85)"><g clip-path="url(#4d67297028)"><g transform="matrix(1, 0, 0, 1, 241, 27)"><g clip-path="url(#5929b39a62)"><g clip-path="url(#ec6a7da33e)"><g clip-path="url(#e49a6fd84c)"><path fill="#000000" d="M 0.4375 0.472656 L 25.132812 0.472656 L 25.132812 320.53125 L 0.4375 320.53125 Z M 0.4375 0.472656 " fill-opacity="1" fill-rule="nonzero"/></g></g></g></g></g></g></svg>